<svg width="104" height="24" viewBox="0 0 104 24" fill="none" xmlns="http://www.w3.org/2000/svg">
<path d="M53.7529 15.3608C52.7322 14.6348 51.2803 14.1446 49.1843 13.8142C46.5841 13.3674 45.1743 12.8942 45.1743 11.6687C45.1743 10.7116 46.066 9.6877 48.5681 9.6877C49.8052 9.6877 50.7528 10.0802 51.3846 10.8543C51.6849 11.2204 51.9121 11.6734 52.0615 12.1977C52.1206 12.4056 52.3105 12.5514 52.5252 12.5514L54.7815 12.5498C54.9231 12.5498 55.0585 12.4878 55.1487 12.3792C55.2405 12.2691 55.2794 12.1263 55.2545 11.9852C54.8608 9.75596 53.5195 8.53043 53.1181 8.20776C51.9463 7.26612 50.4152 6.78987 48.5681 6.78987C46.6417 6.78987 44.9798 7.25992 43.7645 8.15036C42.529 9.05632 41.8755 10.3067 41.8755 11.768C41.8755 15.2398 45.0685 16.2435 48.5199 16.8113C51.7876 17.2953 52.228 18.1826 52.228 18.9877C52.228 20.2893 50.826 21.0991 48.5681 21.0991C48.1744 21.0991 47.801 21.0665 47.4571 21.0029C47.4478 20.9982 47.4384 20.9936 47.4275 20.992C45.9384 20.6942 44.9425 19.7681 44.3823 18.1656C44.3154 17.9732 44.1333 17.8429 43.9279 17.8429H41.5456C41.4024 17.8429 41.2686 17.9065 41.1768 18.0151C41.085 18.1252 41.0477 18.2695 41.0726 18.4091C41.2375 19.3089 41.6685 20.0845 41.6872 20.1171L41.6888 20.1202C42.7158 22.3308 44.6888 23.651 47.398 23.9395C47.4026 23.9395 47.4057 23.9411 47.4104 23.9395C47.7901 23.9798 48.1791 24 48.5681 24C50.5256 24 52.2965 23.4989 53.5538 22.5899C54.8251 21.6699 55.5268 20.3684 55.5268 18.9226C55.5268 17.3744 54.9464 16.2094 53.7529 15.3608Z" fill="#C209C1"/>
<path d="M21.8862 6.89707H19.0137C18.8456 6.89707 18.7103 7.03203 18.7103 7.19958V23.5953C18.7103 23.7628 18.8456 23.8978 19.0137 23.8978H21.8862C22.0543 23.8978 22.1896 23.7628 22.1896 23.5953V7.19958C22.1881 7.03203 22.0527 6.89707 21.8862 6.89707Z" fill="#C209C1"/>
<path d="M103.853 19.1725C103.724 19.0111 103.533 18.9196 103.326 18.9196H101.076C100.797 18.9196 100.55 19.0902 100.446 19.3555C100.081 20.2723 99.2412 20.7563 98.0073 20.7563H97.9948C96.2645 20.7548 95.3511 19.8302 95.3511 18.0835V10.1253C95.3511 10.0586 95.4055 10.0058 95.4709 10.0058H102.218C102.59 10.0058 102.892 9.70488 102.892 9.33412V7.56874C102.892 7.19798 102.59 6.89703 102.218 6.89703H95.4709C95.404 6.89703 95.3511 6.84273 95.3511 6.77758V3.17235C95.3511 2.80159 95.0492 2.50064 94.6773 2.50064H92.5392C92.1673 2.50064 91.8655 2.80159 91.8655 3.17235V18.2184C91.8655 21.7306 94.2602 23.9986 97.9652 23.9986L97.9995 23.997H98.015C98.0259 23.997 98.0353 23.9986 98.0462 23.9986C101.161 23.9986 103.382 22.4038 103.983 19.734C104.029 19.537 103.981 19.3307 103.853 19.1725Z" fill="#C209C1"/>
<path d="M88.2089 8.96805C86.8395 7.59825 85.0158 6.82415 83.0708 6.79157C81.0946 6.759 79.2226 7.49586 77.7988 8.87342C76.3439 10.2804 75.5425 12.1622 75.5425 14.1711C75.5425 14.1711 75.5425 14.8397 75.5425 15.8294V23.5984C75.5425 23.7659 75.6779 23.9009 75.8459 23.9009H78.7184C78.8865 23.9009 79.0219 23.7659 79.0219 23.5984V14.0734C79.0219 13.0294 79.4405 12.0505 80.2014 11.3183C80.9623 10.5861 81.966 10.1951 83.0272 10.2199C85.0656 10.2649 86.8536 11.9915 86.8536 13.9136L86.852 14.0858C86.8504 14.168 86.8831 14.2456 86.9422 14.3045C87.0014 14.3635 87.0792 14.3945 87.1632 14.396C87.8137 14.3976 89.3433 14.3976 90.0217 14.396C90.1929 14.396 90.3329 14.258 90.3329 14.0889V14.0703C90.3329 12.1513 89.5782 10.3394 88.2089 8.96805Z" fill="#C209C1"/>
<path d="M39.3467 17.8462H36.801C36.6936 17.8462 36.594 17.8927 36.5256 17.9719C36.496 18.0044 36.4727 18.0401 36.4555 18.082C35.7631 19.8536 34.2879 20.8712 32.4051 20.8712C31.0031 20.8712 29.7364 20.3236 28.8386 19.3308C27.9423 18.3395 27.449 16.948 27.449 15.4107C27.449 13.8594 27.9423 12.457 28.8386 11.4611C29.7349 10.4651 31.0015 9.91751 32.4051 9.91751C34.3144 9.91751 35.802 10.9445 36.4882 12.7347C36.5442 12.8805 36.6796 12.9736 36.8321 12.9736H39.3778C39.4945 12.9736 39.6019 12.9208 39.675 12.8262C39.7326 12.7502 39.756 12.654 39.7497 12.5594C39.7326 12.3174 39.689 12.0645 39.6206 11.8117C39.6097 11.7651 39.5848 11.6875 39.5848 11.6875C39.2331 10.5179 38.4753 9.61346 38.4426 9.57468C38.4411 9.57312 38.4395 9.57157 38.438 9.57002C37.0468 7.77517 34.9057 6.78854 32.4051 6.78854C30.0119 6.78854 27.8505 7.70226 26.3209 9.36215C24.8582 10.9491 24.0521 13.0977 24.0521 15.4091C24.0521 17.7035 24.8488 19.8365 26.2975 21.4158C27.8458 23.1051 29.9574 23.9971 32.4067 23.9971C33.4492 23.9971 34.4015 23.8435 35.2511 23.5395C37.2211 22.7592 38.7787 21.4514 39.5895 19.005C39.6579 18.7522 39.7031 18.4993 39.7186 18.2573C39.7248 18.1627 39.7031 18.0665 39.6439 17.9905C39.5708 17.899 39.4634 17.8462 39.3467 17.8462Z" fill="#C209C1"/>
<path d="M20.4683 0C19.0476 0 17.8899 1.15262 17.8899 2.5705C17.8899 3.98839 19.046 5.14101 20.4683 5.14101C21.8687 5.14101 23.0093 3.98839 23.0093 2.5705C23.0093 1.15262 21.8687 0 20.4683 0Z" fill="#C209C1"/>
<path d="M8.44166 0H8.42921C6.22893 0 4.14692 0.85942 2.56595 2.42158C2.41657 2.56895 2.13959 2.87766 2.13959 2.87766C2.04467 2.98625 1.95286 3.0964 1.86417 3.20964C1.85327 3.2236 1.82838 3.25618 1.82838 3.25618C0.717346 4.67717 0.0746912 6.41152 0 8.24982V23.5937C0 23.6558 0.0186728 23.7147 0.0513502 23.7628C0.105812 23.8435 0.199176 23.8962 0.303433 23.8962H3.17282C3.34087 23.8962 3.47625 23.7613 3.47625 23.5937V15.7845C3.47625 15.7302 3.5136 15.7054 3.52916 15.6976C3.56339 15.6805 3.60229 15.6836 3.63341 15.7054C5.04632 16.7044 6.70509 17.2241 8.42765 17.2241C9.74253 17.2241 10.964 16.92 12.0922 16.3678C14.9258 14.9809 16.8833 12.0303 16.8833 8.60817C16.8833 3.84878 13.1036 0 8.44166 0ZM8.42921 13.9338C5.60028 13.9338 3.29886 11.5479 3.29886 8.61592C3.29886 5.68397 5.60028 3.29806 8.42921 3.29806C11.2581 3.29806 13.5596 5.68397 13.5596 8.61592C13.5596 11.5479 11.2581 13.9338 8.42921 13.9338Z" fill="#C209C1"/>
<path d="M73.5754 15.2928C73.521 10.5939 69.7615 6.78854 65.1447 6.78854C60.4951 6.78854 56.7123 10.6497 56.7123 15.3952C56.7123 19.2036 59.1507 22.4412 62.5165 23.5705C62.5305 23.5752 62.546 23.5798 62.56 23.586C62.5989 23.5984 62.6378 23.6124 62.6783 23.6248C63.4206 23.8668 64.2422 23.9987 65.1073 23.9987C67.208 23.9987 69.206 23.2106 70.261 22.0161C70.3093 21.9618 70.4011 21.9959 70.4011 22.0688C70.4011 22.6894 70.4011 23.3812 70.4011 23.51V23.5907C70.4011 23.7598 70.5396 23.8978 70.7092 23.8978H73.2689C73.4385 23.8978 73.577 23.7598 73.577 23.5907V15.2928H73.5754ZM65.1447 20.6944C62.2831 20.6944 59.9552 18.3163 59.9552 15.3952C59.9552 12.4741 62.2831 10.0959 65.1447 10.0959C68.0063 10.0959 70.3342 12.4741 70.3342 15.3952C70.3342 18.3163 68.0063 20.6944 65.1447 20.6944Z" fill="#C209C1"/>
</svg>
